<svg viewBox="478 363 232 232" xmlns="http://www.w3.org/2000/svg">
  <rect x="478" y="363" width="232" height="232" rx="56" fill="#3843d0" />
  <path
    d="M653.46 401.342C644.359 395.853 634.609 394.625 624.497 397.514C600.518 404.376 582.245 432.544 575.239 444.895C566.572 438.683 558.194 435 550.249 433.916C540.859 432.616 532.481 434.855 526.053 440.417C519.047 446.484 515.147 456.09 515.003 467.357C514.786 488.808 528.364 516.037 541.871 531.927C553.499 545.578 571.483 563.778 593.079 563.778C596.329 563.778 599.651 563.345 602.902 562.551C619.875 558.145 630.925 545.072 640.026 533.082C654.254 514.304 664.366 492.275 669.205 469.307C674.477 444.245 673.177 413.187 653.532 401.342H653.46ZM558.41 526.438C556.966 524.921 555.521 523.26 554.077 521.526C542.81 508.309 530.892 484.836 531.037 467.574C531.037 460.929 533.059 455.584 536.526 452.623C538.765 450.673 541.726 449.661 545.193 449.661C546.132 449.661 547.071 449.661 548.082 449.878C553.932 450.673 560.866 454.067 568.161 459.701C559.566 481.513 557.833 504.192 557.905 519.432C557.905 521.743 558.049 524.126 558.41 526.438ZM653.387 465.985C649.054 486.641 639.953 506.503 627.169 523.404C626.953 523.693 626.736 523.982 626.519 524.271C625.869 518.132 624.208 511.487 621.825 505.42C616.697 492.347 606.874 477.685 600.012 469.018C597.34 465.696 593.079 460.712 587.734 455.512C600.807 430.666 618.213 416.076 628.903 412.971C634.681 411.31 640.026 412.032 645.154 415.137C658.443 423.155 656.638 450.889 653.387 466.057V465.985ZM609.763 537.488C607.813 542.4 601.385 547.455 594.234 546.95C580.439 546.083 574.011 531.999 573.939 519.36C573.939 507.298 575.022 489.241 580.945 471.546C583.112 473.857 585.278 476.457 587.445 479.13C594.09 487.508 602.757 500.725 606.874 511.342C610.702 521.237 611.93 531.999 609.763 537.56V537.488Z"
    fill="#ffffff"
  />
</svg>
